<?xml version="1.0" encoding="UTF-8" standalone="no"?>
<svg width="28px" height="28px" viewBox="0 0 28 28" version="1.1" xmlns="http://www.w3.org/2000/svg" xmlns:xlink="http://www.w3.org/1999/xlink">
    <!-- Generator: Sketch 41.2 (35397) - http://www.bohemiancoding.com/sketch -->
    <title>Page 1</title>
    <desc>Created with Sketch.</desc>
    <defs></defs>
    <g id="Page-1" stroke="none" stroke-width="1" fill="none" fill-rule="evenodd">
        <g id="sprites" transform="translate(-1.000000, -660.000000)" fill="#FFFEF6">
            <g id="Page-1" transform="translate(1.000000, 660.000000)">
                <path d="M0.585886438,3.41421356 L23.9238864,26.7522136 C24.704935,27.5332621 25.971265,27.5332621 26.7523136,26.7522136 C27.5333621,25.971165 27.5333621,24.704835 26.7523136,23.9237864 L3.41431356,0.585786438 C2.63326498,-0.195262146 1.36693502,-0.195262146 0.585886438,0.585786438 C-0.195162146,1.36683502 -0.195162146,2.63316498 0.585886438,3.41421356 Z" id="Stroke-1"></path>
                <path d="M3.41431356,26.7523136 L26.7523136,3.41431356 C27.5333621,2.63326498 27.5333621,1.36693502 26.7523136,0.585886438 C25.971265,-0.195162146 24.704935,-0.195162146 23.9238864,0.585886438 L0.585886438,23.9238864 C-0.195162146,24.704935 -0.195162146,25.971265 0.585886438,26.7523136 C1.36693502,27.5333621 2.63326498,27.5333621 3.41431356,26.7523136 Z" id="Stroke-3"></path>
            </g>
        </g>
    </g>
</svg>