<?xml version="1.0" encoding="UTF-8" standalone="no"?>
<svg width="228px" height="655px" viewBox="0 0 228 655" version="1.1" xmlns="http://www.w3.org/2000/svg" xmlns:xlink="http://www.w3.org/1999/xlink">
    <!-- Generator: Sketch 41.2 (35397) - http://www.bohemiancoding.com/sketch -->
    <title>sprites</title>
    <desc>Created with Sketch.</desc>
    <defs>
        <polygon id="path-1" points="5.86010625 20.9986574 0 20.9986574 0 3.44262296e-05 5.86010625 3.44262296e-05 11.7202125 3.44262296e-05 11.7202125 20.9986574"></polygon>
        <polygon id="path-3" points="0 0.81 0 13.212 14.8506 13.212 14.8506 0.81 2.71050543e-20 0.81"></polygon>
        <polygon id="path-5" points="10.2402 0.895 0.9922 0.895 0.9922 13.7093 10.2402 13.7093 10.2402 0.895"></polygon>
        <rect id="path-7" x="0.948" y="0.806" width="21.536" height="54.126"></rect>
        <rect id="path-9" x="0.948" y="0.806" width="21.536" height="54.126"></rect>
        <rect id="path-11" x="0.948" y="0.806" width="21.536" height="54.126"></rect>
        <rect id="path-13" x="0.948" y="0.806" width="21.536" height="54.126"></rect>
        <rect id="path-15" x="0.948" y="0.806" width="21.536" height="54.126"></rect>
        <rect id="path-17" x="0.948" y="0.806" width="21.536" height="54.126"></rect>
        <rect id="path-19" x="0.948" y="0.806" width="21.536" height="54.126"></rect>
        <rect id="path-21" x="0.948" y="0.806" width="21.536" height="54.126"></rect>
    </defs>
    <g id="Page-1" stroke="none" stroke-width="1" fill="none" fill-rule="evenodd">
        <g id="sprites" transform="translate(-1.000000, 0.000000)">
            <g id="Page-1" transform="translate(1.000000, 600.000000)">
                <mask id="mask-2" fill="white">
                    <use xlink:href="#path-1"></use>
                </mask>
                <g id="Clip-2"></g>
                <path d="M7.5014625,20.9986574 L7.5014625,11.3648213 L10.8764625,11.3648213 L11.4434625,7.79447705 L7.5014625,7.79447705 L7.5014625,4.98632951 C7.5014625,3.96972295 8.0684625,3.38895246 9.1889625,3.38895246 L11.7202125,3.38895246 L11.7202125,0.169411475 C11.7202125,0.169411475 10.5865875,3.44262296e-05 8.9515875,3.44262296e-05 C5.2469625,3.44262296e-05 3.3749625,1.88796885 3.3749625,4.70816557 L3.3749625,7.79447705 L-3.75e-05,7.79447705 L-3.75e-05,11.3648213 L3.3749625,11.3648213 L3.3749625,20.9986574 L7.5014625,20.9986574 Z" id="Fill-1" fill="#07A9E0" mask="url(#mask-2)"></path>
            </g>
            <path d="M21.6153846,581.972957 C20.8503606,582.315204 20.0450721,582.546725 19.179387,582.647386 C20.0652043,582.123948 20.7295673,581.288462 21.0416166,580.301983 C20.2363281,580.785156 19.3203125,581.13747 18.3740986,581.328726 C17.5788762,580.523438 16.4816707,580 15.2636719,580 C12.9283353,580 11.0459736,581.882362 11.0459736,584.217698 C11.0459736,584.54988 11.0661058,584.892127 11.1365685,585.194111 C7.6335637,585.002855 4.53320312,583.41241 2.42938702,580.855619 C2.07707332,581.479718 1.85561899,582.123948 1.85561899,582.909105 C1.85561899,584.358624 2.60051082,585.647085 3.74804688,586.412109 C3.05348558,586.391977 2.40925481,586.200721 1.83548678,585.888672 L1.83548678,585.939002 C1.83548678,587.992488 3.29507212,589.703726 5.22776442,590.086238 C4.86538462,590.186899 4.4828726,590.23723 4.10036058,590.23723 C3.83864183,590.23723 3.57692308,590.207031 3.31520433,590.156701 C3.83864183,591.827674 5.41902043,593.075871 7.25105168,593.096004 C5.82166466,594.24354 3.97956731,595.099159 2.00661058,595.099159 C1.66436298,595.099159 1.33218149,595.079026 1,595.028696 C2.86222957,596.226562 5.10697115,596.75 7.49263822,596.75 C15.2636719,596.75 19.5115685,590.307692 19.5115685,584.721004 L19.5115685,584.167368 C20.3269231,583.573468 21.0416166,582.838642 21.6153846,581.972957 Z" id="twitter" fill="#07A9E0"></path>
            <g id="system" transform="translate(1.000000, 480.000000)">
                <path d="M47.0525,40.5322 C47.0525,41.1982 47.0655,41.8642 47.0495,42.5292 C47.0235,43.5602 46.3555,44.3072 45.3365,44.3382 C43.8845,44.3822 42.4295,44.3812 40.9775,44.3402 C39.9285,44.3112 39.2525,43.5612 39.2385,42.4962 C39.2235,41.3062 39.2085,40.1142 39.2445,38.9252 C39.2645,38.2422 39.0355,37.6892 38.5545,37.2582 C38.1095,36.8592 37.6325,36.4832 37.1255,36.1722 C36.4645,35.7682 35.5445,35.9692 34.8835,36.6232 C33.9705,37.5252 33.0775,38.4482 32.1725,39.3582 C31.2575,40.2792 30.3975,40.2742 29.4795,39.3462 C28.5195,38.3772 27.5595,37.4082 26.6045,36.4352 C25.7685,35.5842 25.7575,34.7052 26.5885,33.8432 C27.4245,32.9772 28.3035,32.1522 29.1105,31.2602 C29.3855,30.9552 29.6475,30.5052 29.6565,30.1152 C29.6765,29.3412 29.6105,28.5362 29.4045,27.7932 C29.1905,27.0202 28.4995,26.6812 27.7315,26.6572 C26.4765,26.6162 25.2205,26.6332 23.9645,26.6302 C22.3925,26.6252 21.7955,26.1252 21.7175,24.5542 C21.6515,23.2302 21.6785,21.8972 21.7295,20.5702 C21.7745,19.3662 22.4475,18.7432 23.6465,18.7232 C24.7825,18.7042 25.9205,18.6842 27.0555,18.7312 C27.7585,18.7602 28.2905,18.5072 28.7475,18.0092 C28.7885,17.9652 28.8305,17.9222 28.8715,17.8782 C30.4155,16.1882 30.4005,15.3652 28.7955,13.7422 C28.0765,13.0142 27.3525,12.2912 26.6395,11.5582 C25.7445,10.6382 25.7455,9.7822 26.6355,8.8792 C27.6065,7.8922 28.5785,6.9072 29.5545,5.9262 C30.3805,5.0952 31.2815,5.0982 32.1205,5.9372 C32.9565,6.7742 33.7615,7.6452 34.6295,8.4472 C34.9295,8.7242 35.3675,8.9742 35.7575,8.9982 C36.4815,9.0412 37.2295,8.9772 37.9425,8.8332 C38.7205,8.6762 39.2125,7.8942 39.2275,6.9332 C39.2475,5.6432 39.2315,4.3512 39.2355,3.0602 C39.2385,1.7212 39.8755,1.0242 41.1895,0.9962 C42.5225,0.9672 43.8575,0.9682 45.1905,0.9992 C46.3795,1.0282 47.0455,1.7572 47.0515,2.9722 C47.0575,4.1222 47.0795,5.2732 47.0435,6.4222 C47.0215,7.1052 47.2515,7.6582 47.7325,8.0892 C48.1775,8.4882 48.6545,8.8642 49.1615,9.1752 C49.8225,9.5802 50.7425,9.3782 51.4035,8.7252 C52.3165,7.8232 53.2095,6.9002 54.1145,5.9892 C55.0295,5.0682 55.8895,5.0732 56.8075,6.0002 C57.7815,6.9842 58.7575,7.9652 59.7245,8.9552 C60.5065,9.7552 60.5195,10.6432 59.7395,11.4592 C58.8945,12.3442 57.9985,13.1812 57.1775,14.0872 C56.9015,14.3912 56.6405,14.8422 56.6305,15.2322 C56.6105,16.0062 56.6765,16.8112 56.8815,17.5532 C57.0955,18.3272 57.7875,18.6662 58.5545,18.6912 C59.8095,18.7322 61.0665,18.7152 62.3225,18.7182 C63.8955,18.7232 64.4925,19.2232 64.5695,20.7932 C64.6345,22.1182 64.6075,23.4502 64.5575,24.7772 C64.5125,25.9812 63.8395,26.6052 62.6415,26.6252 C61.5055,26.6442 60.3675,26.6642 59.2325,26.6172 C58.5295,26.5882 57.9965,26.8392 57.5395,27.3372 C57.4995,27.3822 57.4565,27.4242 57.4155,27.4692 C55.8725,29.1572 55.8875,29.9832 57.4905,31.6052 C58.2095,32.3332 58.9325,33.0562 59.6465,33.7892 C60.5415,34.7092 60.5415,35.5652 59.6525,36.4682 C58.6815,37.4542 57.7095,38.4392 56.7335,39.4212 C55.9065,40.2532 55.0065,40.2502 54.1675,39.4112 C53.3315,38.5742 52.5265,37.7022 51.6585,36.9002 C51.3585,36.6232 50.9195,36.3732 50.5305,36.3502 C49.8065,36.3062 49.0595,36.3742 48.3445,36.5142 C47.6055,36.6592 47.1035,37.4122 47.0675,38.2932 C47.0375,39.0382 47.0615,39.7862 47.0615,40.5322 L47.0525,40.5322 Z M51.0335,22.6832 C51.0365,18.2942 47.5235,14.7262 43.1675,14.6952 C38.8515,14.6632 35.2665,18.2602 35.2535,22.6342 C35.2415,27.0542 38.7925,30.6612 43.1495,30.6532 C47.4905,30.6452 51.0305,27.0672 51.0335,22.6832 L51.0335,22.6832 Z" id="Fill-3" fill="#0075A4"></path>
                <path d="M25.5879,78.3553 C25.5879,79.0213 25.6009,79.6873 25.5849,80.3523 C25.5589,81.3833 24.8909,82.1303 23.8719,82.1613 C22.4199,82.2053 20.9649,82.2043 19.5129,82.1633 C18.4639,82.1343 17.7879,81.3843 17.7739,80.3193 C17.7589,79.1293 17.7439,77.9373 17.7799,76.7483 C17.7999,76.0653 17.5709,75.5123 17.0899,75.0813 C16.6449,74.6823 16.1679,74.3063 15.6609,73.9953 C14.9999,73.5913 14.0799,73.7923 13.4189,74.4463 C12.5059,75.3483 11.6129,76.2713 10.7079,77.1813 C9.7929,78.1023 8.9329,78.0973 8.0149,77.1693 C7.0549,76.2003 6.0949,75.2313 5.1399,74.2583 C4.3039,73.4073 4.2929,72.5283 5.1239,71.6663 C5.9599,70.8003 6.8389,69.9753 7.6459,69.0833 C7.9209,68.7783 8.1829,68.3283 8.1919,67.9383 C8.2119,67.1643 8.1459,66.3593 7.9399,65.6163 C7.7259,64.8433 7.0349,64.5043 6.2669,64.4803 C5.0119,64.4393 3.7559,64.4563 2.4999,64.4533 C0.9279,64.4483 0.3309,63.9483 0.2529,62.3783 C0.1869,61.0533 0.2149,59.7203 0.2649,58.3933 C0.3099,57.1893 0.9829,56.5663 2.1819,56.5463 C3.3179,56.5273 4.4559,56.5073 5.5909,56.5543 C6.2939,56.5833 6.8259,56.3303 7.2829,55.8323 C7.3239,55.7883 7.3669,55.7453 7.4069,55.7013 C8.9509,54.0113 8.9359,53.1883 7.3309,51.5653 C6.6119,50.8373 5.8879,50.1143 5.1749,49.3813 C4.2799,48.4613 4.2809,47.6053 5.1709,46.7023 C6.1419,45.7153 7.1139,44.7303 8.0899,43.7493 C8.9159,42.9183 9.8169,42.9213 10.6559,43.7603 C11.4919,44.5973 12.2969,45.4683 13.1649,46.2703 C13.4649,46.5473 13.9029,46.7973 14.2929,46.8213 C15.0169,46.8643 15.7649,46.8003 16.4779,46.6563 C17.2569,46.4993 17.7479,45.7173 17.7629,44.7563 C17.7829,43.4663 17.7669,42.1743 17.7709,40.8833 C17.7739,39.5443 18.4109,38.8473 19.7249,38.8193 C21.0579,38.7903 22.3929,38.7913 23.7259,38.8223 C24.9149,38.8513 25.5809,39.5803 25.5869,40.7953 C25.5929,41.9453 25.6149,43.0963 25.5789,44.2453 C25.5569,44.9283 25.7869,45.4813 26.2679,45.9123 C26.7129,46.3113 27.1899,46.6873 27.6969,46.9983 C28.3579,47.4033 29.2779,47.2013 29.9389,46.5483 C30.8519,45.6463 31.7449,44.7233 32.6499,43.8123 C33.5649,42.8913 34.4249,42.8963 35.3429,43.8233 C36.3169,44.8073 37.2929,45.7883 38.2599,46.7783 C39.0419,47.5783 39.0549,48.4663 38.2749,49.2823 C37.4299,50.1673 36.5339,51.0043 35.7129,51.9103 C35.4369,52.2143 35.1759,52.6653 35.1659,53.0553 C35.1459,53.8293 35.2119,54.6343 35.4169,55.3763 C35.6309,56.1503 36.3229,56.4893 37.0899,56.5143 C38.3449,56.5553 39.6019,56.5383 40.8579,56.5413 C42.4309,56.5463 43.0279,57.0463 43.1049,58.6163 C43.1699,59.9413 43.1429,61.2733 43.0929,62.6003 C43.0479,63.8043 42.3749,64.4283 41.1769,64.4483 C40.0409,64.4673 38.9029,64.4873 37.7679,64.4403 C37.0649,64.4113 36.5319,64.6623 36.0749,65.1603 C36.0349,65.2053 35.9919,65.2473 35.9509,65.2923 C34.4079,66.9803 34.4229,67.8063 36.0259,69.4283 C36.7449,70.1563 37.4679,70.8793 38.1819,71.6123 C39.0769,72.5323 39.0769,73.3883 38.1879,74.2913 C37.2169,75.2773 36.2449,76.2623 35.2689,77.2443 C34.4419,78.0763 33.5419,78.0733 32.7029,77.2343 C31.8669,76.3973 31.0619,75.5253 30.1939,74.7233 C29.8939,74.4463 29.4549,74.1963 29.0659,74.1733 C28.3419,74.1293 27.5949,74.1973 26.8799,74.3373 C26.1409,74.4823 25.6389,75.2353 25.6029,76.1163 C25.5729,76.8613 25.5969,77.6093 25.5969,78.3553 L25.5879,78.3553 Z M29.5689,60.5063 C29.5719,56.1173 26.0589,52.5493 21.7029,52.5183 C17.3869,52.4863 13.8019,56.0833 13.7889,60.4573 C13.7769,64.8773 17.3279,68.4843 21.6849,68.4763 C26.0259,68.4683 29.5659,64.8903 29.5689,60.5063 L29.5689,60.5063 Z" id="Fill-5" fill="#78CCCE"></path>
                <path d="M62.4136,53.6462 C61.2376,51.8662 58.8556,51.3622 57.0806,52.5192 C55.3216,53.6642 54.8346,56.0842 56.0026,57.8622 C57.1836,59.6572 59.5916,60.1662 61.3566,58.9942 C63.1146,57.8252 63.5896,55.4252 62.4136,53.6462 L62.4136,53.6462 Z M68.1726,64.4592 C68.4226,64.8382 68.6816,65.2132 68.9236,65.5982 C69.2976,66.1942 69.1986,66.8722 68.6306,67.2742 C67.8196,67.8462 66.9896,68.3942 66.1476,68.9192 C65.5396,69.2982 64.8706,69.1252 64.4606,68.5242 C64.0036,67.8512 63.5466,67.1792 63.1186,66.4872 C62.8726,66.0912 62.5326,65.8622 62.0976,65.7982 C61.6926,65.7392 61.2796,65.7052 60.8736,65.7192 C60.3446,65.7372 59.8976,66.1992 59.7666,66.8202 C59.5866,67.6792 59.4266,68.5412 59.2536,69.4002 C59.0796,70.2702 58.5876,70.5922 57.7156,70.4092 C56.8026,70.2192 55.8906,70.0292 54.9796,69.8352 C54.1816,69.6652 53.8436,69.1692 53.9936,68.3642 C54.1426,67.5552 54.3326,66.7542 54.4566,65.9422 C54.4986,65.6652 54.4766,65.3102 54.3356,65.0842 C54.0546,64.6352 53.7136,64.2022 53.3166,63.8562 C52.9036,63.4962 52.3816,63.5652 51.9356,63.8392 C51.2046,64.2902 50.4956,64.7732 49.7786,65.2442 C48.8816,65.8352 48.3526,65.7752 47.7166,64.9102 C47.1796,64.1802 46.6926,63.4112 46.2216,62.6362 C45.7926,61.9332 45.9416,61.3242 46.6166,60.8602 C47.2556,60.4212 47.8976,59.9812 48.5616,59.5792 C48.9726,59.3312 49.1816,58.9872 49.2536,58.5302 C49.2606,58.4902 49.2676,58.4502 49.2746,58.4092 C49.5166,56.8642 49.1976,56.4012 47.6716,56.0822 C46.9876,55.9382 46.3026,55.7992 45.6196,55.6512 C44.7646,55.4642 44.4416,54.9762 44.6076,54.1262 C44.7886,53.1972 44.9716,52.2702 45.1576,51.3432 C45.3136,50.5592 45.8286,50.2212 46.6226,50.3822 C47.4146,50.5442 48.2016,50.7372 48.9986,50.8662 C49.2736,50.9112 49.6176,50.8882 49.8486,50.7542 C50.2776,50.5072 50.6796,50.1882 51.0316,49.8372 C51.4156,49.4542 51.3996,48.8232 51.0466,48.2712 C50.5716,47.5272 50.0756,46.7972 49.5906,46.0622 C49.0876,45.2972 49.1876,44.6602 49.9266,44.1492 C50.6746,43.6292 51.4356,43.1262 52.2066,42.6422 C52.8936,42.2092 53.5486,42.3752 54.0106,43.0632 C54.4476,43.7172 54.8936,44.3642 55.3056,45.0322 C55.5516,45.4302 55.8916,45.6582 56.3276,45.7222 C56.7316,45.7812 57.1446,45.8162 57.5516,45.8012 C58.0806,45.7842 58.5286,45.3212 58.6586,44.7002 C58.8386,43.8422 58.9986,42.9802 59.1706,42.1202 C59.3456,41.2502 59.8376,40.9292 60.7096,41.1112 C61.6346,41.3032 62.5616,41.4952 63.4856,41.6932 C64.2316,41.8542 64.5746,42.3562 64.4386,43.1152 C64.2896,43.9372 64.0946,44.7522 63.9686,45.5782 C63.9266,45.8552 63.9476,46.2102 64.0896,46.4362 C64.3696,46.8842 64.7116,47.3182 65.1076,47.6642 C65.5206,48.0232 66.0426,47.9562 66.4896,47.6812 C67.2196,47.2312 67.9296,46.7472 68.6466,46.2762 C69.5436,45.6852 70.0726,45.7452 70.7086,46.6112 C71.2446,47.3412 71.7316,48.1102 72.2036,48.8842 C72.6326,49.5872 72.4836,50.1962 71.8096,50.6602 C71.1686,51.0992 70.5276,51.5402 69.8646,51.9402 C69.4526,52.1892 69.2436,52.5332 69.1716,52.9892 C69.1646,53.0302 69.1566,53.0702 69.1506,53.1102 C68.9076,54.6542 69.2266,55.1192 70.7516,55.4382 C71.4356,55.5822 72.1206,55.7212 72.8046,55.8702 C73.6606,56.0562 73.9836,56.5432 73.8176,57.3932 C73.6366,58.3212 73.4536,59.2492 73.2676,60.1762 C73.1096,60.9612 72.5966,61.3002 71.8026,61.1382 C71.0106,60.9762 70.2236,60.7842 69.4266,60.6542 C69.1516,60.6092 68.8076,60.6312 68.5766,60.7652 C68.1476,61.0142 67.7476,61.3342 67.3926,61.6832 C67.0266,62.0452 67.0246,62.6622 67.3376,63.1782 C67.6006,63.6132 67.8956,64.0302 68.1776,64.4552 L68.1726,64.4592 Z" id="Fill-7" fill="#007281"></path>
            </g>
            <g id="cycle" transform="translate(1.000000, 400.000000)">
                <path d="M35.0515,34.7993 L49.9455,49.6933 C53.7195,45.8613 56.0515,40.6033 56.0515,34.7993 L35.0515,34.7993 Z" id="Fill-3" fill="#F3A01D"></path>
                <path d="M35.0515,34.7993 L20.1575,49.6933 C16.3835,45.8613 14.0515,40.6033 14.0515,34.7993 L35.0515,34.7993 Z" id="Fill-5" fill="#FEC24D"></path>
                <path d="M35.0515,34.7993 L49.9455,19.9053 C53.7195,23.7373 56.0515,28.9953 56.0515,34.7993 L35.0515,34.7993 Z" id="Fill-7" fill="#FEC24D"></path>
                <path d="M35.0515,34.7993 L20.1575,19.9053 C16.3835,23.7373 14.0515,28.9953 14.0515,34.7993 L35.0515,34.7993 Z" id="Fill-9" fill="#F3A01D"></path>
                <path d="M35.0515,34.7993 L49.9455,19.9053 C46.1135,16.1313 40.8555,13.7993 35.0515,13.7993 L35.0515,34.7993 Z" id="Fill-11" fill="#F3A01D"></path>
                <path d="M35.0515,34.7993 L49.9455,49.6933 C46.1135,53.4673 40.8555,55.7993 35.0515,55.7993 L35.0515,34.7993 Z" id="Fill-13" fill="#FEC24D"></path>
                <path d="M35.0515,34.7993 L20.1575,19.9053 C23.9895,16.1313 29.2475,13.7993 35.0515,13.7993 L35.0515,34.7993 Z" id="Fill-15" fill="#FEC24D"></path>
                <path d="M35.0515,34.7993 L20.1575,49.6933 C23.9895,53.4673 29.2475,55.7993 35.0515,55.7993 L35.0515,34.7993 Z" id="Fill-17" fill="#F3A01D"></path>
                <path d="M1.994,22.4266 C2.156,23.0356 2.706,23.4366 3.307,23.4366 C3.423,23.4366 3.541,23.4226 3.658,23.3906 L10.33,21.6136 C11.056,21.4206 11.488,20.6746 11.294,19.9496 C11.101,19.2226 10.354,18.7856 9.63,18.9856 L6.322,19.8666 C11.847,9.7346 22.566,3.2936 34.204,3.2936 C38.105,3.2936 41.912,3.9926 45.52,5.3706 C46.224,5.6396 47.008,5.2866 47.276,4.5846 C47.544,3.8836 47.192,3.0976 46.49,2.8286 C42.572,1.3326 38.437,0.5736 34.204,0.5736 C21.494,0.5736 9.799,7.6516 3.833,18.7626 L2.845,15.0556 C2.652,14.3276 1.905,13.8946 1.181,14.0906 C0.455,14.2836 0.023,15.0296 0.217,15.7546 L1.994,22.4266 Z" id="Fill-19" fill="#FFDE78"></path>
                <path d="M30.4887,62.2508 C30.0507,61.6388 29.2017,61.4968 28.5907,61.9348 C27.9797,62.3708 27.8377,63.2218 28.2747,63.8328 L30.2647,66.6178 C18.8357,65.0158 9.0327,57.2538 4.9337,46.3618 C3.5597,42.7128 2.8727,38.9028 2.8917,35.0388 C2.8947,34.2878 2.2887,33.6758 1.5377,33.6728 L1.5307,33.6728 C0.7827,33.6728 0.1747,34.2778 0.1707,35.0268 C0.1507,39.2228 0.8967,43.3588 2.3877,47.3198 C6.8637,59.2148 17.6077,67.6658 30.1097,69.3358 L26.9867,71.5668 C26.3747,72.0038 26.2337,72.8538 26.6697,73.4648 C26.9357,73.8368 27.3537,74.0338 27.7787,74.0338 C28.0517,74.0338 28.3277,73.9518 28.5677,73.7808 L34.1867,69.7678 C34.4797,69.5578 34.6777,69.2398 34.7377,68.8838 C34.7967,68.5288 34.7117,68.1638 34.5027,67.8698 L30.4887,62.2508 Z" id="Fill-21" fill="#FFDE78"></path>
                <path d="M71.4118,0.8727 L65.3818,0.5747 C64.6438,0.5357 63.9938,1.1167 63.9568,1.8667 C63.9198,2.6177 64.4978,3.2547 65.2478,3.2917 L68.5728,3.4567 L60.0808,10.5207 C57.9548,12.2887 58.6148,14.7497 59.5678,15.9607 C63.8538,21.5257 66.1178,28.1897 66.1178,35.2317 C66.1178,48.3277 57.8848,60.2227 45.6318,64.8317 C44.9288,65.0957 44.5728,65.8807 44.8368,66.5837 C45.0418,67.1297 45.5598,67.4647 46.1098,67.4647 C46.2698,67.4647 46.4308,67.4377 46.5888,67.3787 C59.8968,62.3727 68.8388,49.4547 68.8388,35.2317 C68.8388,27.5837 66.3778,20.3467 61.7148,14.2897 C61.5378,14.0647 61.0208,13.2777 61.8208,12.6127 L70.7038,5.2237 L70.5118,9.1027 C70.4748,9.8537 71.0528,10.4917 71.8028,10.5287 C71.8258,10.5297 71.8488,10.5307 71.8718,10.5307 C72.5918,10.5307 73.1928,9.9647 73.2288,9.2377 L73.5268,3.2067 C73.5868,1.9817 72.6388,0.9337 71.4118,0.8727" id="Fill-23" fill="#FFDE78"></path>
            </g>
            <g id="crime-survivors" transform="translate(1.000000, 320.000000)">
                <path d="M21.3091,66.9173 C29.6451,66.9173 36.4031,64.5503 36.4031,61.6303 C36.4031,58.7113 29.6451,56.3443 21.3091,56.3443 C12.9731,56.3443 6.2151,58.7113 6.2151,61.6303 C6.2151,64.5503 12.9731,66.9173 21.3091,66.9173" id="Fill-3" fill="#1073B5"></path>
                <path d="M20.8501,11.5605 C16.2691,11.5605 12.5421,15.2875 12.5421,19.8675 C12.5421,24.4485 16.2691,28.1755 20.8501,28.1755 C25.4311,28.1755 29.1571,24.4485 29.1571,19.8675 C29.1571,15.2875 25.4311,11.5605 20.8501,11.5605 M20.8501,25.5915 C17.6891,25.5915 15.1271,23.0285 15.1271,19.8675 C15.1271,16.7075 17.6891,14.1445 20.8501,14.1445 C24.0111,14.1445 26.5731,16.7075 26.5731,19.8675 C26.5731,23.0285 24.0111,25.5915 20.8501,25.5915" id="Fill-5" fill="#1073B5"></path>
                <path d="M40.7347,19.22 C39.9557,8.915 31.3547,0.794 20.8497,0.794 C10.3457,0.794 1.7437,8.915 0.9647,19.22 C0.9647,19.22 0.8867,19.781 0.9027,20.698 C0.9027,20.713 0.9017,20.728 0.9017,20.743 C0.9017,21.12 0.9147,21.495 0.9347,21.868 C1.0267,24.272 1.3187,27.9 2.2087,30.98 C5.3747,41.929 20.8497,61.294 20.8497,61.294 C20.8497,61.294 36.3247,41.929 39.4907,30.98 C40.3817,27.9 40.6737,24.272 40.7647,21.868 C40.7857,21.495 40.7987,21.12 40.7987,20.743 C40.7987,20.728 40.7977,20.713 40.7977,20.698 C40.8127,19.781 40.7347,19.22 40.7347,19.22 M20.8497,32.502 C13.8837,32.502 8.2157,26.834 8.2157,19.868 C8.2157,12.902 13.8837,7.234 20.8497,7.234 C27.8167,7.234 33.4837,12.902 33.4837,19.868 C33.4837,26.834 27.8167,32.502 20.8497,32.502" id="Fill-7" fill="#00A9E0"></path>
            </g>
            <g id="wellbeing" transform="translate(1.000000, 240.000000)">
                <path d="M33.6904,64.8841 C24.5144,55.7341 14.9204,47.4581 7.7214,36.9351 C4.2594,31.8761 1.3914,26.5251 0.6124,20.2761 C-0.2806,13.1081 3.1644,6.0471 9.1084,2.9821 C15.6664,-0.3979 23.8384,0.7151 29.0244,5.9161 C30.8554,7.7511 32.2924,9.9821 33.9624,12.1001 C34.5784,11.0311 35.1774,9.8821 35.8744,8.7961 C40.1204,2.1691 48.8794,-0.7789 55.8844,2.0371 C63.4994,5.0981 68.2434,13.3481 66.9354,21.1431 C66.0674,26.3181 63.8714,30.9341 61.2274,35.3741 C54.2134,47.1511 43.6374,55.5331 33.6904,64.8841" id="Fill-3" fill="#5A3694"></path>
                <path d="M38.9464,28.2907 C40.8334,25.4477 40.0594,21.6137 37.2164,19.7257 C34.3734,17.8387 30.5394,18.6127 28.6514,21.4557 C28.2994,21.9867 28.0694,22.5577 27.8984,23.1387 C27.1554,25.6687 28.0694,28.4857 30.3814,30.0207 C30.3894,30.0257 30.3984,30.0287 30.4064,30.0337 L28.9594,47.1627 L38.6394,47.1627 L37.1884,29.9837 C37.3564,29.8717 37.5294,29.7677 37.6874,29.6377 C38.1574,29.2547 38.5934,28.8217 38.9464,28.2907" id="Fill-5" fill="#9D7DB8"></path>
                <path d="M31.2099,25.1996 C31.2099,23.7626 32.3749,22.5976 33.8119,22.5976 C35.2489,22.5976 36.4139,23.7626 36.4139,25.1996 C36.4139,26.6366 35.2489,27.8016 33.8119,27.8016 C32.3749,27.8016 31.2099,26.6366 31.2099,25.1996" id="Fill-7" fill="#5A3694"></path>
            </g>
            <g id="public-health" transform="translate(1.000000, 140.000000)">
                <path d="M70.8535,56.8123 C70.7145,57.3733 70.5935,57.9393 70.4355,58.4953 C68.9765,63.5813 64.1935,67.0893 58.9315,66.9443 C53.9155,66.8053 49.3185,62.8743 48.1935,57.7513 C48.1035,57.3433 48.0275,57.0503 47.4785,57.0523 C42.5295,57.0733 37.5825,57.0633 32.6345,57.0663 C32.5295,57.0663 32.4225,57.1063 32.2435,57.1433 L32.2435,58.1323 C32.2435,61.8983 32.2515,65.6643 32.2405,69.4303 C32.2145,77.5483 26.7225,83.9193 18.6155,85.2513 C18.5165,85.2683 18.4265,85.3503 18.3335,85.4013 L14.6425,85.4013 C14.5185,85.3473 14.3985,85.2673 14.2705,85.2443 C7.7285,84.1013 3.4425,80.3743 1.3575,74.1513 C1.0815,73.3233 0.9255,72.4553 0.7145,71.6053 L0.7145,67.9483 C0.7995,67.6083 0.8935,67.2693 0.9665,66.9263 C2.6375,59.2233 8.9425,54.1713 16.9125,54.1653 C20.7135,54.1623 24.5165,54.1663 28.3175,54.1663 L29.2995,54.1663 C29.2995,51.3393 29.3085,48.6063 29.2805,45.8723 C29.2785,45.6983 29.0435,45.4323 28.8605,45.3673 C27.2405,44.7973 26.1965,43.6463 25.3315,42.2223 C21.6165,36.1123 17.8595,30.0263 14.1195,23.9313 C11.6685,19.9393 9.1855,15.9653 6.7805,11.9463 C4.6945,8.4593 6.5575,4.1243 10.5405,3.3113 C11.9655,3.0203 13.4845,3.1893 14.9595,3.1173 C15.2315,3.1043 15.6235,3.0273 15.7435,2.8413 C16.6065,1.5103 17.8465,0.7353 19.3405,0.2983 L20.8515,0.2983 C21.0355,0.3573 21.2155,0.4263 21.4035,0.4683 C23.1095,0.8513 24.7245,1.4563 26.1335,2.4993 C28.5015,4.2523 28.4955,6.3143 26.1135,8.0383 C24.6015,9.1333 22.8895,9.8033 21.0475,10.1073 C18.6075,10.5073 16.3325,9.2143 15.3895,6.9463 C15.2635,6.6443 15.1665,6.3303 15.0375,5.9663 C14.2435,5.9663 13.4625,5.9633 12.6845,5.9673 C12.2925,5.9693 11.8975,5.9543 11.5115,5.9993 C9.8075,6.1983 8.6005,7.5113 8.8005,9.0793 C8.8815,9.7083 9.1955,10.3423 9.5345,10.8983 C12.6455,16.0133 15.7855,21.1113 18.9155,26.2133 C21.9755,31.1993 25.0405,36.1813 28.0875,41.1713 C28.7665,42.2823 29.6685,42.9523 31.0275,42.8463 C32.2005,42.7533 32.9225,42.0533 33.4975,41.0893 C38.0725,33.3973 42.6645,25.7123 47.2515,18.0273 C48.7565,15.5043 50.2865,12.9963 51.7635,10.4573 C52.9975,8.3373 51.7055,6.0723 49.2345,5.9733 C48.5385,5.9453 47.8355,5.9973 47.1405,5.9573 C46.6295,5.9263 46.4375,6.1123 46.2715,6.5983 C45.3965,9.1573 43.0095,10.5823 40.3705,10.0833 C38.2005,9.6753 36.1705,8.8923 34.5845,7.2913 C33.3145,6.0093 33.2965,4.5043 34.5835,3.2523 C35.2305,2.6243 35.9985,2.0483 36.8165,1.6743 C38.0455,1.1123 39.3685,0.7483 40.6505,0.2983 L42.3295,0.2983 C43.7585,0.7903 44.9745,1.5553 45.8185,2.8513 C45.9375,3.0353 46.3315,3.1063 46.6035,3.1203 C47.8825,3.1863 49.2045,3.0313 50.4395,3.2883 C54.4295,4.1193 56.3125,8.4143 54.2675,11.9063 C51.8165,16.0883 49.3125,20.2413 46.8285,24.4053 C43.2515,30.4013 39.6635,36.3913 36.1015,42.3953 C35.2915,43.7573 34.2385,44.7893 32.7265,45.3583 C32.5155,45.4383 32.2655,45.7693 32.2635,45.9873 C32.2325,48.6693 32.2435,51.3533 32.2435,54.1023 L48.0175,54.1023 C48.1605,53.5473 48.2775,52.9793 48.4555,52.4273 C50.1115,47.2863 54.9825,43.9763 60.3575,44.3293 C65.3495,44.6573 69.7595,48.7603 70.7025,53.9493 C70.7245,54.0773 70.8015,54.1963 70.8535,54.3193 L70.8535,56.8123 Z M29.2265,57.0583 L28.4005,57.0583 C24.9925,57.0583 21.5825,57.0493 18.1725,57.0623 C16.9995,57.0673 15.8135,57.0193 14.6575,57.1703 C7.0325,58.1763 2.0215,65.6893 4.0225,73.0573 C5.8545,79.8063 12.5475,83.7783 19.4515,82.2133 C24.9515,80.9683 29.1045,76.1033 29.2535,70.5163 C29.3705,66.2013 29.2925,61.8793 29.2985,57.5623 C29.2985,57.4273 29.2615,57.2923 29.2265,57.0583 L29.2265,57.0583 Z M50.8655,55.6293 C50.8615,60.5573 54.4565,64.1273 59.4175,64.1243 C64.3375,64.1213 67.9995,60.4813 67.9935,55.5993 C67.9865,50.7093 64.3345,47.1143 59.3865,47.1213 C54.4075,47.1273 50.8695,50.6613 50.8655,55.6293 L50.8655,55.6293 Z M41.4315,7.3343 C42.8225,7.3563 43.6135,6.6203 43.6255,5.2933 C43.6405,3.9283 42.8255,3.1073 41.4155,3.1783 C39.9195,3.2553 38.4975,3.6583 37.2225,4.4593 C36.3355,5.0183 36.3355,5.5243 37.2305,6.0723 C38.5135,6.8573 39.9295,7.2493 41.4315,7.3343 L41.4315,7.3343 Z M20.1445,7.3293 C21.4255,7.2943 23.2865,6.7443 24.2745,6.1053 C25.2145,5.4983 25.2405,5.0263 24.3115,4.4513 C23.0325,3.6593 21.6085,3.2503 20.1125,3.1753 C18.6965,3.1053 17.9335,3.9073 17.9485,5.3153 C17.9625,6.6683 18.7235,7.3653 20.1445,7.3293 L20.1445,7.3293 Z" id="Fill-4" fill="#A4D4A4"></path>
                <path d="M59.4307,49.9471 C62.4347,49.9671 65.1617,52.7061 65.1407,55.6821 C65.1207,58.5761 62.3027,61.3181 59.3727,61.2941 C56.3707,61.2701 53.6357,58.5071 53.6807,55.5451 C53.7257,52.5901 56.4607,49.9261 59.4307,49.9471 M56.5657,55.6471 C56.5747,57.3761 57.6597,58.4511 59.3937,58.4481 C61.1617,58.4461 62.2767,57.3331 62.2627,55.5821 C62.2477,53.8361 61.1367,52.7821 59.3277,52.8011 C57.5817,52.8211 56.5567,53.8771 56.5657,55.6471" id="Fill-6" fill="#058040"></path>
            </g>
            <g id="footer-logo" transform="translate(1.000000, 60.000000)">
                <polygon id="Fill-1" fill="#FFFEF6" points="24.7135 42.3663 24.7135 33.0093 30.8205 33.0093 30.8205 34.0473 25.8735 34.0473 25.8735 37.0633 30.7225 37.0633 30.7225 38.1013 25.8735 38.1013 25.8735 42.3663"></polygon>
                <g id="Group-8" transform="translate(32.000000, 30.105500)" fill="#FFFEF6">
                    <path d="M0.7352,7.5894 C0.7352,4.8254 2.6072,2.7494 5.3602,2.7494 C8.1132,2.7494 10.0002,4.8254 10.0002,7.5894 C10.0002,10.3534 8.1132,12.4294 5.3602,12.4294 C2.6072,12.4294 0.7352,10.3534 0.7352,7.5894 M8.7982,7.5894 C8.7982,5.4014 7.4422,3.7874 5.3602,3.7874 C3.2642,3.7874 1.9372,5.4014 1.9372,7.5894 C1.9372,9.7634 3.2642,11.3914 5.3602,11.3914 C7.4422,11.3914 8.7982,9.7634 8.7982,7.5894" id="Fill-2"></path>
                    <path d="M17.0574,12.2608 L14.6964,8.5428 L12.8234,8.5428 L12.8234,12.2608 L11.6634,12.2608 L11.6634,2.9038 L15.4084,2.9038 C17.1134,2.9038 18.3434,3.9978 18.3434,5.7238 C18.3434,7.4068 17.1834,8.3328 15.9114,8.4448 L18.4274,12.2608 L17.0574,12.2608 Z M17.1414,5.7238 C17.1414,4.6578 16.3724,3.9418 15.2684,3.9418 L12.8234,3.9418 L12.8234,7.5188 L15.2684,7.5188 C16.3724,7.5188 17.1414,6.7758 17.1414,5.7238 L17.1414,5.7238 Z" id="Fill-4"></path>
                    <path d="M24.6645,10.9259 L26.0385,8.9629 C26.8665,9.8299 28.1525,10.5719 29.7725,10.5719 C31.1645,10.5719 31.8165,9.9529 31.8165,9.2639 C31.8165,7.2119 25.0525,8.6449 25.0525,4.2059 C25.0525,2.2429 26.7435,0.6159 29.5085,0.6159 C31.3765,0.6159 32.9265,1.1819 34.0885,2.2599 L32.6975,4.1349 C31.7455,3.2509 30.4775,2.8439 29.2795,2.8439 C28.2225,2.8439 27.6235,3.3039 27.6235,4.0109 C27.6235,5.8679 34.3705,4.6129 34.3705,9.0159 C34.3705,11.1729 32.8205,12.8009 29.6675,12.8009 C27.3945,12.8009 25.7745,12.0399 24.6645,10.9259" id="Fill-6"></path>
                </g>
                <path d="M76.0976,42.6938 L75.3636,40.7098 L70.3626,40.7098 L69.6276,42.6938 L66.8126,42.6938 L71.3066,30.9838 L74.4186,30.9838 L78.9126,42.6938 L76.0976,42.6938 Z M72.8626,33.4768 L71.0446,38.5158 L74.6816,38.5158 L72.8626,33.4768 Z" id="Fill-9" fill="#FFFEF6"></path>
                <polygon id="Fill-10" fill="#FFFEF6" points="79.9976 42.6938 79.9976 30.9838 88.2506 30.9838 88.2506 33.1788 82.4806 33.1788 82.4806 35.6368 88.1286 35.6368 88.1286 37.8308 82.4806 37.8308 82.4806 42.6938"></polygon>
                <polygon id="Fill-11" fill="#FFFEF6" points="89.9827 42.6938 89.9827 30.9838 98.2357 30.9838 98.2357 33.1788 92.4657 33.1788 92.4657 35.6368 98.1137 35.6368 98.1137 37.8308 92.4657 37.8308 92.4657 40.4998 98.2357 40.4998 98.2357 42.6938"></polygon>
                <polygon id="Fill-12" fill="#FFFEF6" points="102.8704 42.6938 102.8704 33.1788 99.4604 33.1788 99.4604 30.9838 108.7634 30.9838 108.7634 33.1788 105.3714 33.1788 105.3714 42.6938"></polygon>
                <polygon id="Fill-13" fill="#FFFEF6" points="113.957 42.6938 113.957 37.9008 109.481 30.9838 112.313 30.9838 115.199 35.6718 118.084 30.9838 120.899 30.9838 116.44 37.9008 116.44 42.6938"></polygon>
                <path d="M133.1001,42.3663 L132.2761,40.2763 L127.6361,40.2763 L126.8121,42.3663 L125.4841,42.3663 L129.2431,33.0093 L130.6831,33.0093 L134.4281,42.3663 L133.1001,42.3663 Z M129.9561,34.2013 L127.9851,39.2523 L131.9401,39.2523 L129.9561,34.2013 Z" id="Fill-14" fill="#FFFEF6"></path>
                <polygon id="Fill-15" fill="#FFFEF6" points="142.9384 42.3663 137.5024 34.9033 137.5024 42.3663 136.3424 42.3663 136.3424 33.0093 137.5304 33.0093 142.8964 40.3183 142.8964 33.0093 144.0564 33.0093 144.0564 42.3663"></polygon>
                <g id="Group-24" transform="translate(146.000000, 30.105500)" fill="#FFFEF6">
                    <path d="M0.3767,12.2608 L0.3767,2.9038 L3.5627,2.9038 C6.4687,2.9038 8.3417,4.9378 8.3417,7.5898 C8.3417,10.2548 6.4687,12.2608 3.5627,12.2608 L0.3767,12.2608 Z M7.1397,7.5898 C7.1397,5.5688 5.8677,3.9418 3.5627,3.9418 L1.5367,3.9418 L1.5367,11.2228 L3.5627,11.2228 C5.8267,11.2228 7.1397,9.5958 7.1397,7.5898 L7.1397,7.5898 Z" id="Fill-16"></path>
                    <path d="M14.4019,11.6404 L15.4859,9.7444 C15.9409,10.1834 16.5349,10.5874 17.3399,10.5874 C18.4409,10.5874 19.1579,9.8324 19.1579,8.7084 L19.1579,0.8784 L21.6589,0.8784 L21.6589,8.7434 C21.6589,11.4994 19.9269,12.7994 17.5489,12.7994 C16.3599,12.7994 15.2409,12.4654 14.4019,11.6404" id="Fill-18"></path>
                    <path d="M23.6001,7.9009 L23.6001,0.8789 L26.1181,0.8789 L26.1181,7.8309 C26.1181,9.4639 27.0621,10.5869 28.8631,10.5869 C30.6641,10.5869 31.5911,9.4639 31.5911,7.8309 L31.5911,0.8789 L34.1261,0.8789 L34.1261,7.9009 C34.1261,10.7979 32.4131,12.7989 28.8631,12.7989 C25.3131,12.7989 23.6001,10.7979 23.6001,7.9009" id="Fill-20"></path>
                    <path d="M35.6337,10.8277 L37.0077,8.8647 C37.8357,9.7317 39.1217,10.4737 40.7427,10.4737 C42.1337,10.4737 42.7857,9.8547 42.7857,9.1657 C42.7857,7.1137 36.0207,8.5457 36.0207,4.1077 C36.0207,2.1447 37.7117,0.5177 40.4777,0.5177 C42.3457,0.5177 43.8957,1.0837 45.0577,2.1617 L43.6667,4.0367 C42.7157,3.1527 41.4467,2.7457 40.2487,2.7457 C39.1917,2.7457 38.5927,3.2057 38.5927,3.9127 C38.5927,5.7697 45.3397,4.5147 45.3397,8.9177 C45.3397,11.0747 43.7897,12.7027 40.6367,12.7027 C38.3637,12.7027 36.7437,11.9417 35.6337,10.8277" id="Fill-22"></path>
                </g>
                <polygon id="Fill-25" fill="#FFFEF6" points="195.6988 42.6938 195.6988 33.1788 192.2888 33.1788 192.2888 30.9838 201.5918 30.9838 201.5918 33.1788 198.1988 33.1788 198.1988 42.6938"></polygon>
                <polygon id="Fill-26" fill="#FFFEF6" points="203.183 42.6945 205.666 42.6945 205.666 30.9845 203.183 30.9845"></polygon>
                <path d="M207.065,36.8477 C207.065,33.2317 209.775,30.7917 213.29,30.7917 C215.843,30.7917 217.329,32.1777 218.151,33.6527 L216.018,34.7057 C215.528,33.7577 214.479,33.0037 213.29,33.0037 C211.157,33.0037 209.618,34.6357 209.618,36.8477 C209.618,39.0597 211.157,40.6927 213.29,40.6927 C214.479,40.6927 215.528,39.9377 216.018,38.9897 L218.151,40.0247 C217.329,41.4827 215.843,42.9047 213.29,42.9047 C209.775,42.9047 207.065,40.4467 207.065,36.8477" id="Fill-27" fill="#FFFEF6"></path>
                <polygon id="Fill-29" fill="#FFFEF6" points="219.6387 30.9843 219.6387 42.6943 227.8917 42.6943 227.8917 40.4993 222.1207 40.4993 222.1207 37.8303 227.7697 37.8303 227.7697 35.6363 222.1207 35.6363 222.1207 33.1783 227.8917 33.1783 227.8917 30.9843"></polygon>
                <path d="M24.3951,20.3752 C24.3951,16.0832 27.5151,13.1512 31.4721,13.1512 C33.6921,13.1512 35.3871,14.1362 36.5601,15.6222 L35.5551,16.2712 C34.6761,15.0572 33.1471,14.2402 31.4721,14.2402 C28.2061,14.2402 25.6511,16.7322 25.6511,20.3752 C25.6511,23.9762 28.2061,26.5102 31.4721,26.5102 C33.1471,26.5102 34.6761,25.6932 35.5551,24.4792 L36.5811,25.1072 C35.3251,26.6362 33.6921,27.5992 31.4721,27.5992 C27.5151,27.5992 24.3951,24.6672 24.3951,20.3752" id="Fill-30" fill="#FFFEF6"></path>
                <path d="M54.5265,27.3476 L53.1445,23.9136 L45.7535,23.9136 L44.3715,27.3476 L42.9895,27.3476 L48.7055,13.3816 L50.1925,13.3816 L55.9085,27.3476 L54.5265,27.3476 Z M49.4595,14.6596 L46.1515,22.8246 L52.7465,22.8246 L49.4595,14.6596 Z" id="Fill-32" fill="#FFFEF6"></path>
                <polygon id="Fill-33" fill="#FFFEF6" points="63.9497 27.3476 63.9497 13.3816 65.1637 13.3816 65.1637 26.2586 71.9267 26.2586 71.9267 27.3476"></polygon>
                <polygon id="Fill-34" fill="#FFFEF6" points="80.66 27.3475 81.853 27.3475 81.853 13.3815 80.66 13.3815"></polygon>
                <polygon id="Fill-35" fill="#FFFEF6" points="91.6109 27.3476 91.6109 13.3816 100.4679 13.3816 100.4679 14.4706 92.8039 14.4706 92.8039 19.6426 100.3209 19.6426 100.3209 20.7316 92.8039 20.7316 92.8039 27.3476"></polygon>
                <g id="Group-40" transform="translate(107.000000, 13.105500)" fill="#FFFEF6">
                    <path d="M0.8809,7.2697 C0.8809,3.1867 3.5609,0.0457 7.6649,0.0457 C11.7479,0.0457 14.4489,3.1867 14.4489,7.2697 C14.4489,11.3527 11.7479,14.4937 7.6649,14.4937 C3.5609,14.4937 0.8809,11.3527 0.8809,7.2697 M13.1929,7.2697 C13.1929,3.7317 11.0149,1.1347 7.6649,1.1347 C4.2939,1.1347 2.1369,3.7317 2.1369,7.2697 C2.1369,10.7877 4.2939,13.4047 7.6649,13.4047 C11.0149,13.4047 13.1929,10.7877 13.1929,7.2697" id="Fill-36"></path>
                    <path d="M30.6144,14.2421 L26.6984,8.4631 L23.6214,8.4631 L23.6214,14.2421 L22.4274,14.2421 L22.4274,0.2761 L27.6414,0.2761 C30.0494,0.2761 31.8914,1.8051 31.8914,4.3591 C31.8914,6.8931 30.1114,8.2961 28.0184,8.3791 L32.0594,14.2421 L30.6144,14.2421 Z M30.6354,4.3591 C30.6354,2.6001 29.4004,1.3651 27.5364,1.3651 L23.6214,1.3651 L23.6214,7.3741 L27.5364,7.3741 C29.4004,7.3741 30.6354,6.1181 30.6354,4.3591 L30.6354,4.3591 Z" id="Fill-38"></path>
                </g>
                <polygon id="Fill-41" fill="#FFFEF6" points="157.2972 27.3476 148.5032 15.3496 148.5032 27.3476 147.3102 27.3476 147.3102 13.3816 148.5242 13.3816 157.2762 25.2116 157.2762 13.3816 158.4702 13.3816 158.4702 27.3476"></polygon>
                <polygon id="Fill-42" fill="#FFFEF6" points="168.229 27.3475 169.423 27.3475 169.423 13.3815 168.229 13.3815"></polygon>
                <path d="M189.2929,27.3476 L187.9109,23.9136 L180.5199,23.9136 L179.1379,27.3476 L177.7559,27.3476 L183.4719,13.3816 L184.9589,13.3816 L190.6749,27.3476 L189.2929,27.3476 Z M184.2259,14.6596 L180.9179,22.8246 L187.5129,22.8246 L184.2259,14.6596 Z" id="Fill-43" fill="#FFFEF6"></path>
                <polygon id="Fill-44" fill="#FFFEF6" points="208.5782 27.3476 199.7842 15.3496 199.7842 27.3476 198.5912 27.3476 198.5912 13.3816 199.8052 13.3816 208.5572 25.2116 208.5572 13.3816 209.7512 13.3816 209.7512 27.3476"></polygon>
                <g id="Group-56" transform="translate(0.000000, 3.105500)">
                    <path d="M217.8969,22.274 L218.6719,21.374 C219.5719,22.4 221.0379,23.405 223.0479,23.405 C225.8949,23.405 226.7119,21.813 226.7119,20.62 C226.7119,16.516 218.3369,18.652 218.3369,13.773 C218.3369,11.491 220.3889,10.046 222.9219,10.046 C224.9949,10.046 226.5859,10.779 227.6539,12.014 L226.8589,12.894 C225.8539,11.679 224.4299,11.135 222.8589,11.135 C220.9959,11.135 219.5929,12.203 219.5929,13.71 C219.5929,17.291 227.9679,15.323 227.9679,20.536 C227.9679,22.337 226.7749,24.493 223.0059,24.493 C220.7029,24.493 218.9649,23.551 217.8969,22.274" id="Fill-45" fill="#FFFEF6"></path>
                    <path d="M0.8065,11.6251 L0.6125,12.1271 C0.6025,12.1551 0.5835,12.1781 0.5595,12.1951 L0.2795,12.3811 L0.3795,13.0091 L0.5825,13.7351 L0.5885,13.7931 L16.0905,3.2641 L14.0465,2.1551 L11.6785,0.8071 L0.8135,11.5901 L0.8065,11.6251 Z" id="Fill-47" fill="#FFFEF6"></path>
                    <path d="M23.8172,51.478 L23.3722,50.694 C23.3522,50.659 23.3482,50.616 23.3622,50.577 L23.4772,50.244 L23.4422,49.905 C23.4412,49.893 23.4412,49.881 23.4432,49.87 L23.4902,49.553 L23.4752,49.132 L23.2802,48.374 C23.2742,48.351 23.2742,48.326 23.2802,48.302 L23.3662,47.963 L23.4892,47.699 L20.4132,39.225 L19.0692,35.585 L20.2722,54.849 L20.8232,54.441 L21.0412,54.066 C21.0472,54.054 21.0552,54.045 21.0642,54.035 L21.3022,53.799 L21.4782,53.224 C21.4812,53.214 21.4852,53.205 21.4902,53.196 L21.7922,52.649 C21.8102,52.617 21.8412,52.592 21.8772,52.582 L22.1912,52.486 L22.3972,52.249 C22.4162,52.226 22.4412,52.21 22.4702,52.203 L23.6742,51.896 L23.9152,51.734 L23.8172,51.478 Z" id="Fill-49" fill="#FFFEF6"></path>
                    <g id="Group-53" transform="translate(0.000000, 15.000000)">
                        <mask id="mask-4" fill="white">
                            <use xlink:href="#path-3"></use>
                        </mask>
                        <g id="Clip-52"></g>
                        <path d="M1.9426,7.406 C1.9136,7.392 1.6596,6.89 1.6596,6.89 L1.5466,6.669 L0.9096,6.95 L0.8636,7.178 C0.8606,7.194 0.8556,7.209 0.8466,7.224 L0.6756,7.508 C0.6706,7.517 0.6636,7.526 0.6556,7.534 L0.5046,7.691 L0.4426,7.937 L0.4836,8.249 L0.7566,9.294 L0.9836,9.6 L1.5446,9.803 C1.6006,9.823 1.6376,9.875 1.6396,9.934 L1.6606,10.629 C1.6606,10.642 1.6586,10.655 1.6566,10.668 L1.4846,11.347 C1.4726,11.394 1.4386,11.431 1.3936,11.447 C1.3486,11.463 1.2986,11.456 1.2606,11.428 L1.2386,11.411 L1.1206,11.573 C1.0996,11.602 1.0686,11.622 1.0326,11.629 L0.3956,11.756 L0.2466,12.347 L-0.0004,12.952 L0.0476,13.212 L13.3496,3.611 L14.7316,1.036 L14.8506,0.81 L1.8556,6.534 C1.9046,7.024 1.9426,7.406 1.9426,7.406" id="Fill-51" fill="#FFFEF6" mask="url(#mask-4)"></path>
                    </g>
                    <path d="M13.162,19.5856 L0.614,30.2096 L0.523,30.7876 L0.699,31.4606 C0.704,31.4796 0.705,31.4996 0.701,31.5186 L0.65,31.8456 L0.688,32.1286 L0.982,32.5406 C0.999,32.5646 1.008,32.5916 1.009,32.6206 L1.029,33.2796 L1.442,34.0146 C1.456,34.0386 1.462,34.0666 1.46,34.0946 L1.436,34.4496 C1.433,34.4996 1.403,34.5446 1.359,34.5676 L1.102,34.6976 L1.002,34.9166 L1.127,35.1926 L1.402,35.3786 C1.425,35.3946 1.444,35.4176 1.454,35.4436 L1.616,35.8466 C1.63,35.8786 1.63,35.9156 1.617,35.9496 L1.509,36.2486 C1.502,36.2686 1.49,36.2866 1.475,36.3006 L1.109,36.6666 L0.954,37.2756 C0.948,37.3006 0.935,37.3236 0.916,37.3426 L0.691,37.5656 L0.672,37.8666 C0.669,37.9026 0.653,37.9366 0.626,37.9616 L0.35,38.2226 L0.284,38.4096 L0.34,38.4426 L13.951,21.7216 L13.162,19.5856 Z" id="Fill-54" fill="#FFFEF6"></path>
                </g>
                <polygon id="Fill-57" fill="#FFFEF6" points="14.499 59.7987 18.078 61.1057 18.441 36.9887 16.898 32.8077"></polygon>
                <polygon id="Fill-58" fill="#FFFEF6" points="0.6264 17.2989 0.6834 17.8919 0.6874 17.9059 18.3584 12.2669 20.2734 8.6369 17.9684 7.3869"></polygon>
                <g id="Group-68" transform="translate(0.000000, 0.105500)">
                    <path d="M4.5495,45.3985 L4.4845,46.0145 L5.0125,46.7345 L5.5275,47.2665 L6.2425,47.5825 L15.4335,28.7375 L14.1885,25.3665 L2.0445,42.8995 L2.2175,42.9775 C2.2365,42.9865 2.2525,42.9985 2.2665,43.0145 L2.7635,43.5895 L3.0125,43.7685 L3.6245,43.9885 C3.6495,43.9975 3.6715,44.0135 3.6885,44.0345 L4.1115,44.5675 C4.1195,44.5765 4.1255,44.5865 4.1295,44.5975 L4.2985,44.9685 L4.5255,45.3035 C4.5445,45.3305 4.5535,45.3655 4.5495,45.3985" id="Fill-59" fill="#FFFEF6"></path>
                    <path d="M16.565,31.8017 L15.708,29.4797 L7.619,49.9477 L7.703,50.0257 C7.722,50.0427 7.736,50.0657 7.743,50.0907 L7.919,50.6947 L8.075,51.0307 L8.335,51.3827 C8.341,51.3917 8.347,51.4017 8.351,51.4117 L9.057,53.0337 C9.061,53.0427 9.064,53.0527 9.066,53.0627 L9.211,53.7887 L9.242,54.6067 L9.139,55.2987 L8.906,55.9557 L8.621,56.4917 C8.626,56.4957 8.63,56.4997 8.634,56.5037 L8.919,56.8057 C8.967,56.8567 8.972,56.9327 8.931,56.9887 L8.729,57.2667 C8.727,57.2707 8.723,57.2737 8.72,57.2777 L8.706,57.5707 L8.767,57.6007 L12.041,58.7957 L16.565,31.8017 Z" id="Fill-61" fill="#FFFEF6"></path>
                    <path d="M0.9979,18.5215 C1.0039,18.5335 1.0089,18.5455 1.0119,18.5575 L1.0879,18.9055 C1.0909,18.9185 1.0919,18.9325 1.0909,18.9455 L1.0669,19.3005 C1.0659,19.3135 1.0629,19.3275 1.0589,19.3395 L1.0329,19.4125 L1.0329,19.4125 L1.0559,19.4505 C1.0639,19.4665 1.0699,19.4835 1.0729,19.5005 L1.1879,20.2175 C1.1889,20.2305 1.1889,20.2435 1.1879,20.2555 L1.1159,20.9275 C1.1079,21.0015 1.0459,21.0565 0.9709,21.0565 C0.8979,21.0535 0.8359,20.9975 0.8309,20.9235 L0.8139,20.6935 L0.6439,20.8535 C0.6999,20.8485 0.7559,20.8765 0.7829,20.9285 L1.0299,21.3845 C1.0399,21.4035 1.0459,21.4245 1.0469,21.4465 L1.0579,21.7245 L1.3059,21.9875 C1.3239,22.0055 1.3349,22.0265 1.3409,22.0495 L1.4349,22.4165 L1.6469,22.3915 C1.6439,22.3775 1.6569,22.5135 1.6789,22.7345 L15.3009,17.9545 L17.1919,14.3725 L0.8409,18.2275 L0.9979,18.5215 Z" id="Fill-63" fill="#FFFEF6"></path>
                    <g id="Group-67">
                        <mask id="mask-6" fill="white">
                            <use xlink:href="#path-5"></use>
                        </mask>
                        <g id="Clip-66"></g>
                        <path d="M1.8902,12.1453 L1.7992,12.5193 C1.7912,12.5493 1.7762,12.5743 1.7532,12.5933 L1.4592,12.8473 L1.0652,13.3473 L0.9922,13.7093 L10.2402,2.9883 L6.5622,0.8943 L6.5622,0.8943 L6.2422,1.4103 C6.2352,1.4203 6.2282,1.4283 6.2212,1.4363 L6.0182,1.6383 L6.1162,1.9813 C6.1252,2.0113 6.1242,2.0423 6.1142,2.0693 L6.0052,2.3703 L5.9092,3.0073 C5.9032,3.0493 5.8782,3.0873 5.8412,3.1083 L5.8042,3.1303 L5.5742,3.6803 C5.5682,3.6963 5.5582,3.7113 5.5462,3.7233 L4.4612,4.8783 L4.4472,5.1503 C4.4452,5.1763 4.4372,5.2023 4.4222,5.2233 L4.2132,5.5313 C4.2062,5.5423 4.1972,5.5513 4.1882,5.5593 L3.8942,5.8133 L3.7332,6.0173 L3.7522,6.0483 C3.7742,6.0843 3.7792,6.1273 3.7642,6.1683 C3.7512,6.2083 3.7202,6.2403 3.6802,6.2553 L3.3162,6.3943 L2.9572,6.4613 L2.7262,6.6913 L2.3302,6.9573 L1.9202,7.4923 L1.7952,7.9883 C1.7912,8.0023 1.7872,8.0133 1.7802,8.0243 L1.6352,8.2803 L2.0482,9.3463 C2.0592,9.3733 2.0612,9.4043 2.0532,9.4333 L1.9872,9.6983 L2.1092,10.0183 C2.1142,10.0323 2.1172,10.0463 2.1182,10.0613 L2.1762,11.1273 C2.1772,11.1463 2.1742,11.1653 2.1682,11.1833 L2.0672,11.4653 L2.0432,11.8003 C2.0422,11.8183 2.0372,11.8363 2.0292,11.8523 L1.8902,12.1453 Z" id="Fill-65" fill="#FFFEF6" mask="url(#mask-6)"></path>
                    </g>
                </g>
            </g>
            <g id="logo" transform="translate(1.000000, 0.000000)">
                <g id="Group">
                    <g id="Clipped">
                        <mask id="mask-8" fill="white">
                            <use xlink:href="#path-7"></use>
                        </mask>
                        <g id="SVGID_3_"></g>
                        <path d="M1.674,13.171 L1.5,13.622 C1.49,13.647 1.474,13.668 1.451,13.684 L1.2,13.852 L1.289,14.417 L1.472,15.07 L1.477,15.123 L15.437,5.642 L13.597,4.644 L11.464,3.429 L1.68,13.14 L1.674,13.171 Z" id="Shape" fill="#82D3ED" mask="url(#mask-8)"></path>
                    </g>
                    <g id="Clipped">
                        <mask id="mask-10" fill="white">
                            <use xlink:href="#path-9"></use>
                        </mask>
                        <g id="SVGID_3_"></g>
                        <path d="M22.396,49.059 L21.997,48.353 C21.978,48.321 21.975,48.283 21.986,48.248 L22.09,47.947 L22.059,47.642 C22.059,47.632 22.059,47.621 22.061,47.611 L22.102,47.325 L22.089,46.946 L21.913,46.264 C21.908,46.243 21.908,46.22 21.913,46.199 L21.99,45.894 L22.101,45.656 L19.331,38.025 L18.121,34.747 L19.204,52.095 L19.7,51.728 L19.895,51.39 C19.901,51.379 19.909,51.37 19.916,51.363 L20.13,51.15 L20.289,50.632 C20.292,50.623 20.295,50.615 20.299,50.608 L20.572,50.115 C20.588,50.087 20.615,50.063 20.648,50.054 L20.931,49.968 L21.117,49.754 C21.135,49.733 21.156,49.719 21.181,49.713 L22.265,49.437 L22.482,49.291 L22.396,49.059 Z" id="Shape" fill="#82D3ED" mask="url(#mask-10)"></path>
                    </g>
                    <g id="Clipped">
                        <mask id="mask-12" fill="white">
                            <use xlink:href="#path-11"></use>
                        </mask>
                        <g id="SVGID_3_"></g>
                        <path d="M2.698,22.879 C2.672,22.866 2.444,22.414 2.444,22.414 L2.342,22.215 L1.768,22.468 L1.727,22.673 C1.724,22.688 1.719,22.702 1.711,22.715 L1.557,22.971 C1.552,22.979 1.546,22.987 1.539,22.994 L1.403,23.136 L1.347,23.357 L1.384,23.638 L1.63,24.579 L1.835,24.854 L2.339,25.037 C2.39,25.055 2.423,25.101 2.425,25.154 L2.444,25.78 C2.444,25.793 2.442,25.804 2.44,25.816 L2.286,26.427 C2.274,26.469 2.244,26.502 2.203,26.517 C2.163,26.532 2.118,26.525 2.084,26.5 L2.064,26.484 L1.958,26.63 C1.939,26.655 1.911,26.673 1.879,26.679 L1.305,26.794 L1.171,27.327 L0.949,27.871 L0.991,28.104 L12.97,19.459 L14.215,17.139 L14.321,16.936 L2.619,22.09 C2.664,22.535 2.698,22.879 2.698,22.879" id="Shape" fill="#82D3ED" mask="url(#mask-12)"></path>
                    </g>
                    <g id="Clipped">
                        <mask id="mask-14" fill="white">
                            <use xlink:href="#path-13"></use>
                        </mask>
                        <g id="SVGID_3_"></g>
                        <path d="M12.801,20.339 L1.502,29.906 L1.419,30.427 L1.578,31.033 C1.582,31.05 1.583,31.068 1.58,31.085 L1.534,31.379 L1.568,31.634 L1.833,32.005 C1.848,32.027 1.856,32.051 1.857,32.077 L1.875,32.671 L2.247,33.332 C2.259,33.353 2.265,33.379 2.264,33.404 L2.242,33.723 C2.239,33.768 2.212,33.809 2.172,33.829 L1.941,33.947 L1.851,34.143 L1.963,34.391 L2.211,34.559 C2.232,34.574 2.249,34.594 2.258,34.618 L2.404,34.981 C2.416,35.009 2.416,35.043 2.405,35.074 L2.307,35.343 C2.301,35.362 2.29,35.378 2.277,35.39 L1.947,35.72 L1.808,36.268 C1.802,36.291 1.791,36.312 1.774,36.33 L1.571,36.53 L1.553,36.801 C1.551,36.834 1.536,36.864 1.513,36.887 L1.264,37.122 L1.204,37.291 L1.254,37.32 L13.511,22.262 L12.801,20.339 Z" id="Shape" fill="#82D3ED" mask="url(#mask-14)"></path>
                    </g>
                </g>
                <polygon id="Shape" fill="#82D3ED" points="14.005 53.755 17.228 54.932 17.555 33.215 16.165 29.449"></polygon>
                <polygon id="Shape" fill="#82D3ED" points="1.513 15.482 1.563 16.018 1.567 16.03 17.48 10.952 19.204 7.684 17.128 6.558"></polygon>
                <g id="Group">
                    <g id="Clipped">
                        <mask id="mask-16" fill="white">
                            <use xlink:href="#path-15"></use>
                        </mask>
                        <g id="SVGID_2_"></g>
                        <path d="M5.045,40.882 L4.986,41.438 L5.462,42.085 L5.926,42.564 L6.57,42.849 L14.846,25.878 L13.725,22.842 L2.788,38.63 L2.944,38.701 C2.961,38.709 2.976,38.72 2.988,38.734 L3.435,39.252 L3.66,39.414 L4.211,39.612 C4.234,39.619 4.253,39.633 4.268,39.653 L4.65,40.132 C4.657,40.141 4.662,40.149 4.666,40.158 L4.818,40.493 L5.023,40.794 C5.041,40.821 5.048,40.853 5.045,40.882" id="Shape" fill="#82D3ED" mask="url(#mask-16)"></path>
                    </g>
                    <g id="Clipped">
                        <mask id="mask-18" fill="white">
                            <use xlink:href="#path-17"></use>
                        </mask>
                        <g id="SVGID_2_"></g>
                        <path d="M15.865,28.638 L15.093,26.547 L7.81,44.98 L7.885,45.049 C7.903,45.066 7.916,45.085 7.922,45.108 L8.08,45.652 L8.22,45.955 L8.455,46.272 C8.46,46.28 8.465,46.289 8.469,46.297 L9.105,47.758 C9.108,47.767 9.111,47.776 9.113,47.784 L9.244,48.438 L9.272,49.173 L9.179,49.796 L8.969,50.388 L8.713,50.871 C8.717,50.874 8.721,50.878 8.724,50.882 L8.981,51.154 C9.023,51.199 9.028,51.268 8.992,51.318 L8.81,51.568 C8.807,51.572 8.804,51.575 8.801,51.578 L8.789,51.843 L8.844,51.869 L11.792,52.946 L15.865,28.638 Z" id="Shape" fill="#82D3ED" mask="url(#mask-18)"></path>
                    </g>
                    <g id="Clipped">
                        <mask id="mask-20" fill="white">
                            <use xlink:href="#path-19"></use>
                        </mask>
                        <g id="SVGID_2_"></g>
                        <path d="M1.847,16.679 C1.853,16.691 1.857,16.7 1.859,16.711 L1.928,17.025 C1.931,17.036 1.932,17.048 1.931,17.061 L1.909,17.379 C1.908,17.392 1.906,17.404 1.902,17.415 L1.878,17.48 L1.899,17.515 C1.906,17.529 1.911,17.543 1.914,17.559 L2.018,18.205 C2.019,18.216 2.019,18.227 2.018,18.239 L1.954,18.843 C1.946,18.909 1.89,18.959 1.823,18.959 C1.757,18.957 1.701,18.905 1.696,18.839 L1.681,18.632 L1.528,18.777 C1.578,18.773 1.629,18.798 1.654,18.843 L1.876,19.254 C1.885,19.272 1.89,19.29 1.891,19.311 L1.901,19.562 L2.125,19.797 C2.14,19.814 2.15,19.832 2.156,19.854 L2.241,20.185 L2.431,20.162 C2.429,20.149 2.441,20.272 2.46,20.471 L14.728,16.167 L16.431,12.941 L1.706,16.412 L1.847,16.679 Z" id="Shape" fill="#82D3ED" mask="url(#mask-20)"></path>
                    </g>
                    <g id="Clipped">
                        <mask id="mask-22" fill="white">
                            <use xlink:href="#path-21"></use>
                        </mask>
                        <g id="SVGID_2_"></g>
                        <path d="M2.65,10.938 L2.568,11.275 C2.561,11.3 2.547,11.324 2.527,11.34 L2.262,11.569 L1.907,12.019 L1.842,12.345 L10.169,2.691 L6.857,0.805 L6.569,1.27 C6.563,1.279 6.557,1.286 6.55,1.292 L6.367,1.475 L6.456,1.784 C6.463,1.811 6.463,1.839 6.453,1.864 L6.356,2.135 L6.27,2.708 C6.264,2.746 6.241,2.78 6.208,2.799 L6.175,2.82 L5.968,3.316 C5.962,3.33 5.953,3.342 5.942,3.354 L4.965,4.394 L4.953,4.639 C4.951,4.661 4.943,4.685 4.931,4.704 L4.742,4.981 C4.736,4.991 4.728,4.999 4.719,5.005 L4.454,5.234 L4.31,5.418 L4.327,5.445 C4.346,5.478 4.351,5.517 4.338,5.554 C4.326,5.588 4.298,5.618 4.262,5.631 L3.935,5.756 L3.611,5.817 L3.403,6.025 L3.046,6.264 L2.677,6.745 L2.564,7.192 C2.561,7.204 2.557,7.213 2.551,7.224 L2.421,7.454 L2.793,8.413 C2.802,8.438 2.804,8.465 2.797,8.492 L2.737,8.73 L2.847,9.018 C2.852,9.031 2.854,9.043 2.855,9.057 L2.908,10.017 C2.909,10.034 2.906,10.051 2.9,10.068 L2.809,10.322 L2.788,10.623 C2.787,10.64 2.783,10.656 2.775,10.67 L2.65,10.938 Z" id="Shape" fill="#82D3ED" mask="url(#mask-22)"></path>
                    </g>
                </g>
            </g>
            <path d="M1.38404398,652.389044 C0.985318675,652.787769 0.985318675,653.434231 1.38404398,653.832956 C1.78276928,654.231681 2.42923072,654.231681 2.82795602,653.832956 L8.83095602,647.829956 C9.22970448,647.431208 9.22967793,646.7847 8.83089672,646.385985 L2.74289672,640.298985 C2.34413867,639.900292 1.69767723,639.900345 1.29898468,640.299103 C0.90029213,640.697861 0.900345227,641.344323 1.29910328,641.743015 L6.66502865,647.108059 L1.38404398,652.389044 Z" id="Page-1" fill="#F25A2B"></path>
        </g>
    </g>
</svg>